<?xml version="1.0" encoding="utf-8"?>
<!-- Generator: Adobe Illustrator 16.0.4, SVG Export Plug-In . SVG Version: 6.00 Build 0)  -->
<!DOCTYPE svg PUBLIC "-//W3C//DTD SVG 1.1//EN" "http://www.w3.org/Graphics/SVG/1.1/DTD/svg11.dtd">
<svg version="1.1" id="Layer_1" xmlns="http://www.w3.org/2000/svg" xmlns:xlink="http://www.w3.org/1999/xlink" x="0px" y="0px"
	 width="612px" height="536.412px" viewBox="1.617 67 612 536.412" enable-background="new 1.617 67 612 536.412"
	 xml:space="preserve">
<path d="M613.617,557.742c0,17.65-7.166,30.723-21.433,39.15c-7.565,3.384-15.328,5.441-23.357,6.304
	c-7.963,0.862-15.594-0.862-22.694-5.043c-7.166-4.181-14.067-9.224-20.835-15.129l-25.216-22.694
	c-11.745-10.086-25.215-21.433-40.41-34.04c-19.376-15.13-35.302-24.419-47.976-27.737c-16.854-5.905-33.842-9.488-51.094-10.749
	c-17.253-1.261-34.704-1.925-52.355-1.925c-17.65,0-35.301,0.664-53.018,1.925s-34.903,4.844-51.758,10.749
	c-12.607,3.385-28.6,12.607-47.975,27.737c-15.13,12.607-28.6,23.954-40.411,34.04l-25.215,22.694
	c-5.906,5.905-12.608,10.948-20.173,15.129s-15.328,5.905-23.357,5.043c-8.028-0.863-15.328-2.92-22.096-6.304
	c-15.063-8.494-22.628-21.5-22.628-39.15s0.398-35.301,1.261-53.019c2.521-36.163,7.167-71.93,13.868-107.23
	c5.044-29.462,11.745-58.659,20.173-87.723c8.427-29.064,19.773-52.354,34.106-70.072l1.261-20.172c0-1.659,0.398-2.919,1.261-3.782
	c15.13-13.47,32.183-21.897,51.095-25.215c18.911-3.318,37.623-2.124,56.137,3.782c3.384,0,5.043,3.384,5.043,10.086v7.564
	c18.514,5.906,37.226,10.086,56.137,12.608c18.912,2.521,41.008,3.782,66.224,3.782c25.215,0,47.312-1.261,66.223-3.782
	s37.226-6.702,54.876-12.608v-7.564c0-6.702,1.659-10.086,5.043-10.086c18.514-5.906,37.425-7.167,56.801-3.782
	c19.376,3.384,36.164,11.745,50.497,25.215c1.659,0.863,2.521,2.124,2.521,3.782v20.172h1.261
	c13.47,17.651,24.618,41.008,33.443,70.005s15.328,58.261,19.575,87.723c6.702,35.301,11.347,71.067,13.868,107.23
	C613.219,522.375,613.617,540.025,613.617,557.742z M92.459,342.55c10.086,9.688,22.295,14.532,36.562,14.532
	s26.277-4.844,35.965-14.532c9.688-9.688,14.532-21.897,14.532-36.562s-4.844-26.94-14.532-36.562
	c-9.688-9.688-21.632-14.532-35.965-14.532s-26.476,4.844-36.562,14.532c-10.087,9.688-15.13,21.632-15.13,35.965
	C77.329,320.454,82.372,332.862,92.459,342.55z M151.78,282.631c5.906,5.906,8.826,13.47,8.826,22.694s-2.92,17.053-8.826,23.357
	c-5.905,6.304-13.47,9.489-22.693,9.489s-16.854-3.185-22.693-9.489c-5.906-6.304-8.825-14.067-8.825-23.357
	c0-9.224,2.919-16.854,8.825-22.694c5.905-5.905,13.47-8.825,22.693-8.825S145.875,276.726,151.78,282.631z M242.622,389.862
	c0-2.521-1.261-3.783-3.782-3.783h-23.955c-0.862,0-1.261-0.862-1.261-2.521v-22.693c-0.862-2.521-2.123-3.783-3.782-3.783h-25.215
	c-2.521,0-3.782,1.261-3.782,3.783v22.693c0,1.659-0.862,2.521-2.521,2.521h-22.76c-2.522,0-3.783,1.261-3.783,3.783v25.215
	c0,1.659,1.261,2.92,3.783,3.782h22.693c1.659,0,2.521,0.398,2.521,1.261v24.021c0,2.521,1.261,3.782,3.782,3.782h25.215
	c1.659,0,2.92-1.261,3.782-3.782v-23.955c0-0.862,0.398-1.261,1.261-1.261h23.955c2.521-0.862,3.782-2.123,3.782-3.782v-25.281
	H242.622z M270.425,331.204c0-7.963-3.981-12.01-12.011-12.01c-7.962,0-12.01,3.981-12.01,12.01c0,8.029,3.782,12.409,11.347,13.271
	C266.178,343.612,270.425,339.166,270.425,331.204z M319.595,331.867c0-8.427-3.981-12.608-12.011-12.608
	c-7.963,0-12.01,4.181-12.01,12.608s4.18,13.072,12.607,13.868C315.812,344.873,319.595,340.228,319.595,331.867z M319.595,402.47
	c0-8.427-3.981-12.607-12.011-12.607c-7.963,0-12.01,4.18-12.01,12.607c0,8.427,4.18,12.607,12.607,12.607
	C315.812,415.144,319.595,410.896,319.595,402.47z M356.82,343.214c7.963,0,12.01-3.981,12.01-12.01
	c0-8.029-3.981-12.011-12.01-12.011c-8.029,0-12.409,4.181-13.271,12.608C344.411,339.432,348.857,343.214,356.82,343.214z
	 M389.666,415.741c3.782-3.782,5.707-8.428,5.707-13.869c0-5.44-1.925-9.887-5.707-13.271c-3.782-3.384-8.228-5.043-13.271-5.043
	c-5.043,0-9.488,1.659-13.271,5.043c-3.782,3.384-5.707,7.764-5.707,13.271c0,5.508,1.925,10.087,5.707,13.869
	s8.228,5.706,13.271,5.706C381.438,421.447,385.884,419.523,389.666,415.741z M431.935,377.254
	c3.385-3.384,5.043-7.764,5.043-13.271c0-5.508-1.658-9.887-5.043-13.271c-3.384-3.384-7.764-5.043-13.271-5.043
	c-5.508,0-10.087,1.659-13.869,5.043c-3.782,3.384-5.706,7.764-5.706,13.271c0,5.507,1.924,9.887,5.706,13.271
	s8.229,5.441,13.271,6.304C423.906,382.762,428.551,380.639,431.935,377.254z M431.935,453.63c3.385-3.782,5.043-8.228,5.043-13.271
	c0-5.044-1.658-9.489-5.043-13.271c-3.384-3.782-7.764-5.707-13.271-5.707c-5.508,0-10.087,1.925-13.869,5.707
	s-5.706,8.228-5.706,13.271c0,5.043,1.924,9.488,5.706,13.271s8.229,5.707,13.271,5.707
	C423.906,459.271,428.551,457.412,431.935,453.63z M523.373,342.55c9.688-9.688,14.532-21.897,14.532-36.562
	s-4.844-26.94-14.532-36.562c-9.688-9.622-21.897-14.532-36.562-14.532c-14.665,0-26.94,4.844-36.562,14.532
	c-9.688,9.688-14.532,21.897-14.532,36.562s4.845,26.94,14.532,36.562c9.688,9.688,21.632,14.532,35.965,14.532
	C501.343,357.082,513.752,352.238,523.373,342.55z M473.54,415.741c3.384-3.782,5.043-8.428,5.043-13.869
	c0-5.44-1.659-9.887-5.043-13.271c-3.384-3.384-7.764-5.043-13.271-5.043c-5.507,0-10.086,1.659-13.868,5.043
	c-3.782,3.384-5.707,7.764-5.707,13.271c0,5.508,1.925,10.087,5.707,13.869s8.229,5.706,13.271,5.706
	C465.577,421.447,470.223,419.523,473.54,415.741z M508.907,282.631c5.906,5.906,8.826,13.47,8.826,22.694
	s-2.92,17.053-8.826,23.357c-5.905,6.304-13.47,9.489-22.693,9.489s-16.854-3.185-22.693-9.489
	c-5.906-6.304-8.825-14.067-8.825-23.357c0-9.224,2.919-16.854,8.825-22.694c5.905-5.905,13.47-8.825,22.693-8.825
	S503.002,276.726,508.907,282.631z"/>
<ellipse fill="#515151" stroke="#333333" stroke-width="5" stroke-miterlimit="10" cx="128.5" cy="306.197" rx="52" ry="51.303"/>
<ellipse fill="#515151" stroke="#333333" stroke-width="5" stroke-miterlimit="10" cx="488.5" cy="306.197" rx="52" ry="51.303"/>
<g id="Capa_x0020_1" transform="translate(-5.825 -5.621)">
	<g id="_56610944">
		<path id="_56666168" fill="#919191" d="M340.49,293.97c0,5.556,6.812,4.762,6.812,0.875v-9.196h-6.812V293.97L340.49,293.97z"/>
		<path id="_56603080" fill="#919191" d="M331.096,299.805c0,2.743,1.964,4.376,4.849,4.376h16.362c2.437,0,4.4-1.61,4.4-3.944
			v-11.519c0-1.4-1.078-2.917-2.424-2.917h-3.794v9.477c0,7.201-13.03,7.142-13.03,0.151v-9.779h-2.885
			c-1.878,0-3.491,1.144-3.491,2.917L331.096,299.805L331.096,299.805z"/>
		<path id="_56604928" fill="#919191" d="M308.443,288.38c0,1.494,1.309,2.754,2.945,2.754c1.722,0,3.066-1.226,3.066-2.754
			c0-1.541-1.345-2.754-3.066-2.754C309.752,285.615,308.443,286.839,308.443,288.38z"/>
		<path id="_56605920" fill="#919191" d="M314.007,309.655v-15.802h-5.067v15.802H314.007z"/>
		<path id="_56605848" fill="#919191" d="M318.721,288.38c0,1.494,1.346,2.754,2.993,2.754c1.673,0,3.031-1.226,3.031-2.754
			c0-1.541-1.346-2.754-3.031-2.754C320.067,285.615,318.721,286.839,318.721,288.38z"/>
		<path id="_56607936" fill="#919191" d="M324.285,309.655v-15.802h-5.079v15.802H324.285z"/>
		<path id="_56607472" fill="#919191" d="M300.867,286.956l-4.424,16.747c0,0-3.394-12.569-3.976-14.389
			c-0.533-1.774-1.673-2.556-3.272-2.556c-1.636,0-2.739,0.793-3.321,2.556c-0.533,1.809-3.928,14.389-3.928,14.389l-4.448-16.747
			h-5.32c0,0,5.115,17.855,5.818,19.944c0.532,1.611,1.842,2.917,3.72,2.917c2.207,0,3.237-1.541,3.686-2.917
			c0.497-1.424,3.806-13.199,3.806-13.199s3.321,11.787,3.77,13.199c0.497,1.377,1.515,2.917,3.685,2.917
			c1.928,0,3.188-1.295,3.77-2.917c0.691-2.089,5.817-19.944,5.817-19.944H300.867L300.867,286.956z"/>
	</g>
</g>
<g>
	<circle stroke="#333333" stroke-width="1.1056" stroke-miterlimit="10" cx="259.708" cy="332.208" r="13.958"/>
	
		<line fill="none" stroke="#EAEAEA" stroke-width="2" stroke-miterlimit="10" x1="252.262" y1="332.208" x2="267.448" y2="332.208"/>
</g>
<g>
	<circle stroke="#333333" stroke-width="1.1056" stroke-miterlimit="10" cx="357.258" cy="332.208" r="13.958"/>
	<line fill="none" stroke="#EAEAEA" stroke-width="2" stroke-miterlimit="10" x1="349.354" y1="332.208" x2="364.54" y2="332.208"/>
	
		<line fill="none" stroke="#EAEAEA" stroke-width="2" stroke-miterlimit="10" x1="356.947" y1="339.801" x2="356.947" y2="324.615"/>
</g>
<g>
	<circle stroke="#333333" stroke-width="1.1056" stroke-miterlimit="10" cx="308.182" cy="332.208" r="13.958"/>
	<g>
		<path fill="#EAEAEA" d="M310.562,332.845v2.801H305.8v-2.801H310.562 M313.562,329.845H302.8v8.801h10.763V329.845
			L313.562,329.845z"/>
	</g>
	<polygon fill="#EAEAEA" stroke="#EAEAEA" stroke-width="0.2572" stroke-miterlimit="10" points="300.963,331.282 308.183,323.845 
		315.4,331.282 	"/>
</g>
<circle fill="#161616" stroke="#333333" stroke-miterlimit="10" cx="377.25" cy="402.75" r="20.25"/>
<circle fill="#161616" stroke="#333333" stroke-miterlimit="10" cx="418.75" cy="440.25" r="20.25"/>
<circle fill="#161616" stroke="#333333" stroke-miterlimit="10" cx="418.75" cy="364.25" r="20.25"/>
<circle fill="#161616" stroke="#333333" stroke-miterlimit="10" cx="461.25" cy="402.75" r="20.25"/>
<text transform="matrix(1 0 0 1 453.5801 409.5)" fill="#EAEAEA" font-family="'Helvetica'" font-size="20">A</text>
<text transform="matrix(1 0 0 1 369.5801 411.5)" fill="#EAEAEA" font-family="'Helvetica'" font-size="20">Y</text>
<text transform="matrix(1 0 0 1 412.0801 448)" fill="#EAEAEA" font-family="'Helvetica'" font-size="20">B</text>
<text transform="matrix(1 0 0 1 412.0801 372)" fill="#EAEAEA" font-family="'Helvetica'" font-size="20">X</text>
<g>
	<path fill-rule="evenodd" clip-rule="evenodd" fill="#161616" d="M179.88,419.517c-0.626,0-1.099,0-1.572,0
		c-7.595-0.002-15.19,0.011-22.786-0.01c-5.699-0.017-8.989-3.323-8.998-9.005c-0.009-5.401-0.013-10.802,0-16.202
		c0.015-5.405,3.412-8.811,8.802-8.82c7.595-0.013,15.191-0.004,22.787-0.004c0.524,0,1.048,0,1.766,0c0-0.55,0-1.015,0-1.479
		c0-7.728-0.002-15.455,0.001-23.182c0.002-5.212,3.44-8.628,8.683-8.631c5.62-0.002,11.239-0.01,16.858,0.003
		c4.957,0.011,8.425,3.493,8.436,8.477c0.016,7.727,0.006,15.455,0.008,23.182c0,0.475,0,0.951,0,1.629c0.593,0,1.1,0,1.604,0
		c7.684-0.002,15.368-0.017,23.051,0c4.246,0.008,7.431,2.363,8.395,6.21c0.2,0.797,0.241,1.65,0.245,2.478
		c0.02,5.532,0.025,11.064,0.006,16.596c-0.018,5.362-3.354,8.724-8.708,8.742c-7.552,0.026-15.103,0.009-22.655,0.01
		c-0.601,0-1.201,0-1.943,0c0,0.768,0,1.371,0,1.976c0,7.553,0.005,15.104-0.001,22.655c-0.005,5.227-3.442,8.673-8.646,8.678
		c-5.62,0.006-11.239,0.01-16.859-0.001c-4.961-0.01-8.462-3.487-8.474-8.447c-0.019-7.729-0.001-15.454-0.001-23.183
		C179.88,420.677,179.88,420.162,179.88,419.517z"/>
</g>
<line fill="none" stroke="#EAEAEA" stroke-width="2" stroke-miterlimit="10" x1="196.847" y1="361.25" x2="196.847" y2="380.75"/>
<line fill="none" stroke="#EAEAEA" stroke-width="2" stroke-miterlimit="10" x1="196.847" y1="423.25" x2="196.847" y2="442.75"/>
<line fill="none" stroke="#EAEAEA" stroke-width="2" stroke-miterlimit="10" x1="216.847" y1="402.503" x2="236.347" y2="402.503"/>
<line fill="none" stroke="#EAEAEA" stroke-width="2" stroke-miterlimit="10" x1="156.042" y1="402.503" x2="175.542" y2="402.503"/>
<circle stroke="#333333" stroke-width="1.1056" stroke-miterlimit="10" cx="308.181" cy="402.846" r="13.958"/>
<circle fill="none" stroke="#BC1B1B" stroke-width="2" stroke-miterlimit="10" cx="308.182" cy="402.845" r="6.776"/>
<line fill="#BC1B1B" stroke="#000000" stroke-width="4.9844" stroke-linecap="round" stroke-miterlimit="10" x1="308.182" y1="402.533" x2="308.182" y2="393.188"/>
<line fill="#BC1B1B" stroke="#BC1B1B" stroke-width="2" stroke-linecap="round" stroke-miterlimit="10" x1="308.182" y1="402.845" x2="308.182" y2="393.499"/>
<g>
	<path d="M101.147,67c13.665,0,27.33,0,40.995,0c0.731,0.32,1.434,0.784,2.198,0.939c22.83,4.621,39.12,21.17,41.86,44.283
		c1.384,11.667,0.687,23.588,0.802,35.396c0.101,10.325,0.018,10.3-10.367,11.418c-30.541,3.29-61.157,2.924-91.771,1.63
		c-8.289-0.351-16.536-1.7-24.806-2.563c-2.953-0.308-4.198-1.579-4.135-4.841c0.23-11.982-0.237-23.984,0.231-35.952
		c0.814-20.806,11.008-35.892,29.538-45.118C90.511,69.793,95.978,68.695,101.147,67z"/>
</g>
<g>
	<path d="M470.146,67c13.666,0,27.33,0,40.996,0c0.73,0.32,1.434,0.784,2.197,0.939c22.83,4.621,39.121,21.17,41.861,44.283
		c1.383,11.667,0.686,23.588,0.801,35.396c0.102,10.325,0.018,10.3-10.367,11.418c-30.541,3.29-61.156,2.924-91.77,1.63
		c-8.289-0.351-16.537-1.7-24.807-2.563c-2.952-0.308-4.197-1.579-4.135-4.841c0.23-11.982-0.236-23.984,0.232-35.952
		c0.814-20.806,11.008-35.892,29.537-45.118C459.512,69.793,464.979,68.695,470.146,67z"/>
</g>
</svg>
